<?xml version="1.0" encoding="utf-8"?>
<!-- Generator: Adobe Illustrator 26.0.3, SVG Export Plug-In . SVG Version: 6.00 Build 0)  -->
<svg version="1.1" id="Outline" xmlns="http://www.w3.org/2000/svg" xmlns:xlink="http://www.w3.org/1999/xlink" x="0px" y="0px"
	 viewBox="0 0 490 346" style="enable-background:new 0 0 490 346;" xml:space="preserve">
<style type="text/css">
	.st0{stroke:#000000;stroke-width:10;stroke-miterlimit:10;}
</style>
<path class="st0" d="M45,341h400c22.1,0,40-17.9,40-40V45c0-22.1-17.9-40-40-40H45C22.9,5,5,22.9,5,45v256C5,323.1,22.9,341,45,341z
	 M445,325H45c-13.2,0-24-10.8-24-24V59l203.8,119.5c12.5,7.3,28,7.3,40.5,0L469,59v242C469,314.2,458.2,325,445,325z M45,21h400
	c11.6,0,21.5,8.3,23.6,19.7l-211.5,124c-7.5,4.4-16.8,4.4-24.3,0L21.4,40.7C23.5,29.3,33.4,21,45,21L45,21z"/>
</svg>
