<?xml version="1.0" encoding="utf-8"?>
<!-- Generator: Adobe Illustrator 26.0.3, SVG Export Plug-In . SVG Version: 6.00 Build 0)  -->
<svg version="1.1" id="light" xmlns="http://www.w3.org/2000/svg" xmlns:xlink="http://www.w3.org/1999/xlink" x="0px" y="0px"
	 viewBox="0 0 522 394" style="enable-background:new 0 0 522 394;" xml:space="preserve">
<style type="text/css">
	.st0{stroke:#000000;stroke-width:10;stroke-miterlimit:10;}
</style>
<g>
	<path class="st0" d="M463.7,389H58.3C28.9,389,5,365.1,5,335.7V58.3C5,28.9,28.9,5,58.3,5h405.3C493.1,5,517,28.9,517,58.3v277.3
		C517,365.1,493.1,389,463.7,389z M58.3,26.3c-17.6,0-32,14.4-32,32v277.3c0,17.6,14.4,32,32,32h405.3c17.6,0,32-14.4,32-32V58.3
		c0-17.6-14.4-32-32-32H58.3z"/>
</g>
<g>
	<path class="st0" d="M165,197c-29.4,0-53.3-23.9-53.3-53.3s23.9-53.3,53.3-53.3s53.3,23.9,53.3,53.3S194.4,197,165,197z M165,111.7
		c-17.6,0-32,14.4-32,32s14.4,32,32,32s32-14.4,32-32S182.6,111.7,165,111.7z"/>
</g>
<g>
	<path class="st0" d="M250.3,303.7c-5.9,0-10.7-4.8-10.7-10.7v-21.3c0-17.6-14.4-32-32-32h-85.3c-17.6,0-32,14.4-32,32V293
		c0,5.9-4.8,10.7-10.7,10.7S69,298.9,69,293v-21.3c0-29.4,23.9-53.3,53.3-53.3h85.3c29.4,0,53.3,23.9,53.3,53.3V293
		C261,298.9,256.2,303.7,250.3,303.7z"/>
</g>
<g>
	<path class="st0" d="M442.3,133h-128c-5.9,0-10.7-4.8-10.7-10.7s4.8-10.7,10.7-10.7h128c5.9,0,10.7,4.8,10.7,10.7
		S448.2,133,442.3,133z"/>
</g>
<g>
	<path class="st0" d="M442.3,218.3h-128c-5.9,0-10.7-4.8-10.7-10.7s4.8-10.7,10.7-10.7h128c5.9,0,10.7,4.8,10.7,10.7
		S448.2,218.3,442.3,218.3z"/>
</g>
<g>
	<path class="st0" d="M442.3,303.7h-128c-5.9,0-10.7-4.8-10.7-10.7c0-5.9,4.8-10.7,10.7-10.7h128c5.9,0,10.7,4.8,10.7,10.7
		C453,298.9,448.2,303.7,442.3,303.7z"/>
</g>
</svg>
